<svg xmlns="http://www.w3.org/2000/svg" xmlns:xlink="http://www.w3.org/1999/xlink" width="3461" height="1077" version="1.1" viewBox="46 46 3461 1077"><g id="Logo-mit-Schriftzug"><g id="Logo"><defs><path id="Unten" d="M706.689 560.317 C655.258 533.651 572.074 533.172 520.894 559.248 L118.253 764.392 C67.073 790.468 67.275 833.225 118.706 859.891 L523.311 1069.677 C574.742 1096.343 657.926 1096.822 709.106 1070.745 L1111.747 865.602 C1162.927 839.526 1162.725 796.769 1111.294 770.103 Z"/></defs><use id="Unten-1" fill="#01695f" fill-opacity="1" stroke="none" xlink:href="#Unten"/><defs><path id="stroke-path" d="M627.828 1104.828 L641.234 1103.984 660.719 1101.531 679.672 1097.531 697.656 1092 711.734 1086.188 1118.938 878.781 1132.047 871.094 1138.875 866.094 1146.469 859.313 1151.641 853.563 1157.063 845.891 1160.469 839.313 1163.516 830.641 1164.953 821.469 1164.688 812.234 1162.75 803.156 1159.219 794.453 1154.344 786.375 1149.609 780.375 1142.594 773.297 1136.297 768.094 1127.203 761.875 1118.422 756.922 713.359 546.891 703.938 542.422 692.422 537.891 680.359 534.047 667.875 530.906 655.063 528.438 642.016 526.656 628.734 525.5 612.156 525 598.781 525.328 585.547 526.328 572.5 527.969 559.703 530.281 547.234 533.297 535.203 537 523.719 541.391 514.328 545.766 111.188 751.172 102.453 756.031 93.375 762.172 87.094 767.328 80.109 774.359 75.406 780.328 70.625 788.281 67.781 795.078 65.578 803.766 64.953 811.031 65.625 820.047 67.969 829.063 71.875 837.672 77.094 845.609 82.047 851.484 89.359 858.438 95.813 863.484 102.859 868.172 111.563 873.094 516.625 1083.125 526.047 1087.594 537.625 1092.156 552.656 1096.797 565.313 1099.781 581.375 1102.547 594.641 1104.016 611.203 1104.922 Z"/></defs><use id="Unten-2" fill="none" stroke="#fff" stroke-linecap="round" stroke-opacity="1" stroke-width="30" xlink:href="#stroke-path"/><defs><path id="Mitte" d="M706.689 330.317 C655.258 303.651 572.074 303.172 520.894 329.248 L118.253 534.392 C67.073 560.468 67.275 603.225 118.706 629.891 L523.311 839.677 C574.742 866.343 657.926 866.822 709.106 840.745 L1111.747 635.602 C1162.927 609.526 1162.725 566.769 1111.294 540.103 Z"/></defs><use id="Mitte-1" fill="#01695f" fill-opacity=".699" stroke="none" xlink:href="#Mitte"/><defs><path id="stroke-path-1" d="M627.828 874.828 L641.234 873.984 660.719 871.531 679.672 867.531 697.656 862 711.734 856.188 1118.938 648.781 1132.047 641.094 1138.875 636.094 1146.469 629.313 1151.641 623.563 1157.063 615.891 1160.469 609.313 1163.516 600.641 1164.953 591.469 1164.688 582.234 1162.75 573.156 1159.219 564.453 1154.344 556.375 1149.609 550.375 1142.594 543.297 1136.297 538.094 1127.203 531.875 1118.422 526.922 713.359 316.891 703.938 312.422 692.422 307.891 680.359 304.047 667.875 300.906 655.063 298.438 642.016 296.656 628.734 295.5 612.156 295 598.781 295.328 585.547 296.328 572.5 297.969 559.703 300.281 547.234 303.297 535.203 307 523.719 311.391 514.328 315.766 111.188 521.172 102.453 526.031 93.375 532.172 87.094 537.328 80.109 544.359 75.406 550.328 70.625 558.281 67.781 565.078 65.578 573.766 64.953 581.031 65.625 590.047 67.969 599.063 71.875 607.672 77.094 615.609 82.047 621.484 89.359 628.438 95.813 633.484 102.859 638.172 111.563 643.094 516.625 853.125 526.047 857.594 537.625 862.156 552.656 866.797 565.313 869.781 581.375 872.547 594.641 874.016 611.203 874.922 Z"/></defs><use id="Mitte-2" fill="none" stroke="#fff" stroke-linecap="round" stroke-opacity="1" stroke-width="30" xlink:href="#stroke-path-1"/><defs><path id="Oben" d="M706.689 100.323 C655.258 73.657 572.074 73.178 520.894 99.255 L118.253 304.398 C67.073 330.474 67.275 373.231 118.706 399.897 L523.311 609.683 C574.742 636.349 657.926 636.828 709.106 610.752 L1111.747 405.608 C1162.927 379.532 1162.725 336.775 1111.294 310.109 Z"/></defs><use id="Oben-1" fill="#01695f" fill-opacity=".396" stroke="none" xlink:href="#Oben"/><defs><path id="stroke-path-2" d="M627.828 644.828 L641.234 643.984 660.719 641.531 679.672 637.547 697.672 632.016 711.734 626.172 1118.938 418.781 1132.047 411.094 1138.875 406.094 1146.453 399.313 1151.625 393.578 1157.063 385.891 1160.469 379.328 1163.516 370.641 1164.953 361.469 1164.688 352.234 1162.75 343.156 1159.219 334.453 1154.344 326.391 1149.609 320.391 1142.594 313.297 1136.297 308.094 1127.203 301.875 1118.422 296.922 713.359 86.891 703.938 82.422 692.406 77.891 680.359 74.063 667.875 70.906 655.063 68.453 642.016 66.656 628.734 65.5 612.141 65.016 598.781 65.344 585.547 66.344 572.5 67.984 559.703 70.297 547.234 73.313 535.203 77 523.703 81.406 514.313 85.781 111.188 291.172 102.453 296.031 93.375 302.172 87.094 307.328 80.094 314.359 75.406 320.359 70.641 328.281 67.781 335.063 65.578 343.766 64.953 351.031 65.625 360.078 67.969 369.078 71.875 377.672 77.094 385.625 82.047 391.484 89.375 398.453 95.828 403.484 102.859 408.172 111.563 413.094 516.625 623.125 526.047 627.594 537.625 632.156 552.641 636.797 565.313 639.797 581.359 642.547 594.625 644.031 611.203 644.938 Z"/></defs><use id="Oben-2" fill="none" stroke="#fff" stroke-linecap="round" stroke-opacity="1" stroke-width="30" xlink:href="#stroke-path-2"/></g><defs><path id="Schriftzug" d="M3409.48 835.06 C3364.76 835.06 3331.077 822.16 3308.43 796.36 3285.783 770.56 3274.46 732.72 3274.46 682.84 L3274.46 258.86 C3274.46 229.62 3288.793 215 3317.46 215 3346.7 215 3361.32 229.62 3361.32 258.86 L3361.32 677.68 C3361.32 734.44 3384.253 762.82 3430.12 762.82 3435.28 762.82 3439.867 762.533 3443.88 761.96 3447.894 761.387 3451.907 761.1 3455.92 761.1 3462.8 760.527 3467.673 762.39 3470.54 766.69 3473.407 770.99 3474.84 779.733 3474.84 792.92 3474.84 816.427 3463.947 829.9 3442.16 833.34 3436.427 833.913 3430.837 834.343 3425.39 834.63 3419.943 834.917 3414.64 835.06 3409.48 835.06 Z M2960.56 988.14 C2944.507 988.14 2933.47 982.263 2927.45 970.51 2921.43 958.757 2921.86 945.14 2928.74 929.66 L2979.48 816.14 2826.4 460.96 C2819.52 445.48 2819.377 431.72 2825.97 419.68 2832.563 407.64 2845.607 401.62 2865.1 401.62 2875.42 401.62 2883.877 404.2 2890.47 409.36 2897.063 414.52 2902.94 423.407 2908.1 436.02 L3025.92 726.7 3145.46 436.02 C3150.62 422.833 3156.64 413.803 3163.52 408.93 3170.4 404.057 3179.86 401.62 3191.9 401.62 3207.38 401.62 3217.987 407.64 3223.72 419.68 3229.453 431.72 3229.167 445.193 3222.86 460.1 L3007.86 954.6 C3002.127 967.787 2995.677 976.673 2988.51 981.26 2981.343 985.847 2972.027 988.14 2960.56 988.14 Z M2635.48 835.06 C2610.253 835.06 2584.167 832.193 2557.22 826.46 2530.273 820.727 2505.907 810.98 2484.12 797.22 2474.373 791.487 2468.353 784.32 2466.06 775.72 2463.767 767.12 2464.34 759.093 2467.78 751.64 2471.22 744.187 2476.81 738.883 2484.55 735.73 2492.29 732.577 2501.033 733.58 2510.78 738.74 2533.14 750.78 2554.64 759.38 2575.28 764.54 2595.92 769.7 2616.273 772.28 2636.34 772.28 2666.727 772.28 2689.66 766.833 2705.14 755.94 2720.62 745.047 2728.36 730.427 2728.36 712.08 2728.36 697.173 2723.2 685.563 2712.88 677.25 2702.56 668.937 2687.08 662.487 2666.44 657.9 L2584.74 641.56 C2512.5 626.653 2476.38 589.387 2476.38 529.76 2476.38 490.2 2492.146 458.667 2523.68 435.16 2555.213 411.653 2596.493 399.9 2647.52 399.9 2699.12 399.9 2743.553 412.513 2780.82 437.74 2789.993 443.473 2795.44 450.497 2797.16 458.81 2798.88 467.123 2797.733 474.863 2793.72 482.03 2789.707 489.197 2783.83 494.213 2776.09 497.08 2768.35 499.947 2759.32 498.8 2749 493.64 2731.8 483.32 2714.6 475.723 2697.4 470.85 2680.2 465.977 2663.573 463.54 2647.52 463.54 2617.707 463.54 2595.06 469.13 2579.58 480.31 2564.1 491.49 2556.36 506.54 2556.36 525.46 2556.36 554.127 2575.28 572.473 2613.12 580.5 L2694.82 596.84 C2732.087 604.293 2760.323 616.907 2779.53 634.68 2798.737 652.453 2808.34 676.533 2808.34 706.92 2808.34 747.054 2792.573 778.443 2761.04 801.09 2729.507 823.737 2687.654 835.06 2635.48 835.06 Z M2195.16 835.06 C2165.92 835.06 2139.833 829.327 2116.9 817.86 2093.967 806.393 2075.763 790.913 2062.29 771.42 2048.817 751.927 2042.08 729.853 2042.08 705.2 2042.08 674.24 2049.963 649.873 2065.73 632.1 2081.497 614.327 2107.583 601.427 2143.99 593.4 2180.397 585.373 2229.56 581.36 2291.48 581.36 L2320.72 581.36 2320.72 559 C2320.72 526.32 2313.84 502.813 2300.08 488.48 2286.32 474.147 2263.674 466.98 2232.14 466.98 2213.793 466.98 2194.73 469.273 2174.95 473.86 2155.17 478.447 2134.673 486.187 2113.46 497.08 2101.42 502.813 2091.53 503.673 2083.79 499.66 2076.05 495.647 2070.747 489.34 2067.88 480.74 2065.013 472.14 2065.3 463.253 2068.74 454.08 2072.18 444.907 2079.347 438.027 2090.24 433.44 2115.467 421.973 2140.406 413.517 2165.06 408.07 2189.713 402.623 2212.933 399.9 2234.72 399.9 2292.054 399.9 2334.48 413.517 2362 440.75 2389.52 467.983 2403.28 510.553 2403.28 568.46 L2403.28 789.48 C2403.28 818.72 2389.807 833.34 2362.86 833.34 2335.34 833.34 2321.58 818.72 2321.58 789.48 L2321.58 757.66 C2311.26 781.74 2295.207 800.66 2273.42 814.42 2251.633 828.18 2225.547 835.06 2195.16 835.06 Z M2212.36 773.14 C2243.32 773.14 2269.12 762.247 2289.76 740.46 2310.4 718.673 2320.72 691.154 2320.72 657.9 L2320.72 634.68 2292.34 634.68 C2250.487 634.68 2217.664 636.687 2193.87 640.7 2170.077 644.713 2153.163 651.45 2143.13 660.91 2133.097 670.37 2128.08 683.413 2128.08 700.04 2128.08 721.827 2135.533 739.457 2150.44 752.93 2165.347 766.403 2185.987 773.14 2212.36 773.14 Z M1822.78 833.34 C1793.54 833.34 1778.92 818.72 1778.92 789.48 L1778.92 445.48 C1778.92 416.24 1792.967 401.62 1821.06 401.62 1849.153 401.62 1863.2 416.24 1863.2 445.48 L1863.2 482.46 C1874.667 456.66 1892.01 436.88 1915.23 423.12 1938.45 409.36 1966.687 401.333 1999.94 399.04 2021.153 397.32 2032.62 408.787 2034.34 433.44 2036.633 458.667 2024.307 472.427 1997.36 474.72 L1981.02 476.44 C1904.766 483.893 1866.64 523.166 1866.64 594.26 L1866.64 789.48 C1866.64 818.72 1852.02 833.34 1822.78 833.34 Z M1465.02 835.06 C1428.327 835.06 1396.077 826.317 1368.27 808.83 1340.463 791.343 1318.82 766.26 1303.34 733.58 1287.86 700.9 1280.12 662.2 1280.12 617.48 1280.12 572.76 1287.86 534.203 1303.34 501.81 1318.82 469.417 1340.32 444.333 1367.84 426.56 1395.36 408.787 1427.753 399.9 1465.02 399.9 1496.553 399.9 1524.646 406.78 1549.3 420.54 1573.953 434.3 1592.3 452.933 1604.34 476.44 L1604.34 258.86 C1604.34 229.62 1618.673 215 1647.34 215 1676.58 215 1691.2 229.62 1691.2 258.86 L1691.2 789.48 C1691.2 818.72 1676.867 833.34 1648.2 833.34 1619.533 833.34 1605.2 818.72 1605.2 789.48 L1605.2 756.8 C1592.587 780.88 1573.953 799.943 1549.3 813.99 1524.646 828.037 1496.553 835.06 1465.02 835.06 Z M1487.38 767.98 C1522.927 767.98 1551.593 755.08 1573.38 729.28 1595.167 703.48 1606.06 666.214 1606.06 617.48 1606.06 568.746 1595.167 531.623 1573.38 506.11 1551.593 480.597 1522.927 467.84 1487.38 467.84 1451.26 467.84 1422.307 480.597 1400.52 506.11 1378.733 531.623 1367.84 568.746 1367.84 617.48 1367.84 666.214 1378.733 703.48 1400.52 729.28 1422.307 755.08 1451.26 767.98 1487.38 767.98 Z"/></defs><use id="Schriftzug-1" fill="#005e54" fill-opacity="1" stroke="none" xlink:href="#Schriftzug"/><defs><path id="stroke-path-3" d="M1476.016 849.797 L1488.266 848.828 1500.25 847.125 1511.922 844.719 1523.313 841.578 1534.375 837.688 1545.078 833.094 1555.453 827.766 1565.344 821.781 1574.656 815.297 1583.391 808.234 1590.938 801.203 1592.422 809.375 1596.156 819.922 1600.609 827.469 1606.203 833.938 1612.719 839.109 1618.063 842.172 1626.016 845.344 1637.094 847.688 1643.609 848.25 1652.906 848.25 1661.766 847.328 1668.063 846 1678.578 842.109 1688.094 835.875 1695.672 827.672 1700.016 820.25 1702.438 814.422 1705.188 803.406 1706.188 791.469 1706.188 258.578 1705.875 250.922 1704.625 241.984 1702.219 233.5 1698.656 225.609 1693.781 218.5 1687.703 212.422 1680.766 207.672 1675.203 204.953 1667.094 202.25 1658.281 200.625 1648.969 200 1639.688 200.297 1633.422 201.094 1625.016 203.063 1617.172 206.188 1611.844 209.266 1605.344 214.406 1599.906 220.688 1596.609 225.906 1593.125 233.75 1590.328 244.938 1589.344 256.891 1589.328 431.563 1587.266 429.5 1576.766 420.641 1565.234 412.578 1552.828 405.391 1542.281 400.297 1528.844 395.047 1517.578 391.594 1506.016 388.859 1491.25 386.469 1476.031 385.172 1463.125 384.906 1448.531 385.469 1434.375 386.906 1423.859 388.609 1410.438 391.641 1397.406 395.625 1384.891 400.484 1375.625 404.813 1363.969 411.281 1352.781 418.625 1342.234 426.734 1332.313 435.578 1323 445.172 1314.328 455.453 1306.297 466.453 1298.906 478.172 1292.156 490.547 1286.078 503.547 1281.938 513.891 1277.234 527.953 1273.281 542.625 1270.109 557.781 1268.234 569.656 1266.438 585.766 1265.406 602.438 1265.109 619.656 1265.578 636.766 1266.813 653.328 1268.813 669.391 1271.578 684.859 1274.203 696.266 1278.344 710.813 1283.266 724.859 1288.984 738.344 1295.438 751.203 1302.516 763.266 1308.344 772.016 1316.547 782.828 1325.453 792.969 1334.969 802.297 1342.656 808.938 1353.297 816.938 1364.578 824.156 1376.344 830.531 1388.578 836.031 1401.172 840.563 1411.063 843.453 1424.406 846.438 1438.172 848.531 1452.297 849.734 1465 850.063 Z M3428.219 849.516 L3441.688 848.484 3448.203 847.5 3455.5 845.547 3462.297 842.781 3468.422 839.219 3472.578 836.047 3477.578 831.078 3481.844 825.188 3485.141 818.719 3487.547 811.781 3489.047 804.469 3489.766 796.859 3489.734 786.469 3489.031 777.141 3487.484 768.609 3483.75 759.063 3476.719 751.328 3467.406 746.969 3458.266 745.984 3447.297 746.469 3435.141 747.703 3421.984 747.422 3415.859 746.578 3410.094 745.172 3406.391 743.875 3402 741.844 3395.547 737.516 3392.078 734.266 3389.875 731.703 3386.781 727.25 3384.984 723.984 3381.25 714.828 3379.484 708.594 3377.688 698.891 3376.703 689.344 3376.328 680.125 3376.313 258.313 3375.328 245.125 3373.313 236.469 3371.219 230.625 3367.391 223.344 3363.75 218.344 3357.984 212.578 3353.156 209.063 3347.969 206.141 3340.047 203.031 3331.531 201.078 3325.219 200.297 3315.828 200 3306.656 200.625 3298.125 202.234 3292.219 204.078 3284.578 207.625 3277.391 212.656 3270.156 220.5 3266.734 225.906 3263.25 233.75 3260.453 244.922 3259.453 256.875 3259.453 685.531 3260.484 708.656 3261.984 722.109 3264.125 734.891 3266.922 747.141 3271.656 762.344 3276.109 773.266 3281.266 783.594 3289.078 796.078 3295.922 804.891 3303.438 812.938 3311.641 820.219 3320.484 826.703 3329.969 832.391 3340.125 837.328 3354.25 842.516 3365.781 845.563 3381.547 848.344 3394.219 849.594 3409.453 850.063 Z M1833.641 847.75 L1842.531 846.109 1851.047 843.266 1860.719 837.844 1867.328 832 1872.594 825.219 1876.703 817.406 1879.984 806.688 1881.031 800.266 1881.625 791.344 1881.625 594.719 1881.953 583.797 1883.469 570.016 1885.563 559.922 1888.328 550.813 1892.969 540.094 1896.063 534.656 1899.781 529.234 1903.797 524.313 1908.297 519.688 1913.344 515.281 1918.547 511.469 1924.5 507.781 1930.859 504.453 1937.813 501.422 1945.172 498.781 1959.156 495 1974.359 492.328 2003.219 489.188 2011.281 487.703 2016.875 486.109 2024.422 483.031 2033.078 477.484 2038.906 471.719 2043.453 465.172 2046.813 457.672 2049.109 447.594 2049.641 439.141 2048.953 428.266 2047.172 418.328 2044.906 411.094 2041.813 404.625 2039.031 400.344 2035.75 396.422 2030.438 391.719 2024.266 388.078 2019.5 386.203 2014.609 384.891 2007.516 383.953 2000.266 383.969 1988.984 384.938 1968.813 387.859 1948.328 392.75 1931.703 398.422 1916.203 405.438 1903.953 412.406 1892.563 420.406 1882.109 429.422 1877.453 434.313 1876.688 428.719 1874.359 420.109 1869.703 410.156 1864.484 403.172 1858.063 397.297 1848.844 391.891 1842.922 389.672 1834.438 387.625 1821.047 386.578 1807.5 387.641 1796.25 390.625 1786.563 395.547 1781.516 399.391 1775.625 405.5 1769.922 414.781 1766.859 422.891 1765.406 428.906 1764.219 437.531 1763.922 443.766 1763.906 789.781 1764.219 797.594 1766.109 809.109 1769 817.781 1774.531 827.625 1782.203 835.797 1789.672 840.922 1800.141 845.328 1811.734 847.734 1822.766 848.375 Z M2205.766 849.813 L2217.516 848.844 2228.922 847.172 2239.984 844.781 2250.672 841.641 2260.953 837.781 2270.844 833.172 2280.266 827.844 2289.172 821.891 2297.484 815.359 2305.25 808.266 2307.922 805.391 2308.031 806.188 2310.266 814.609 2313.609 822.406 2318.297 829.703 2326.078 837.484 2335.75 843.234 2346.563 846.766 2358.094 848.25 2367.234 848.25 2373.563 847.672 2384.406 845.219 2394.578 840.578 2403.313 833.656 2409.953 824.953 2413.719 817.172 2416.234 808.969 2417.719 800.281 2418.266 791.297 2418.266 565.531 2417.766 549.109 2415.906 528.359 2412.641 508.938 2409.234 495.094 2405.063 482.156 2401.703 473.688 2396.172 462.094 2391.813 454.5 2384.875 444.234 2379.547 437.609 2372.563 430.078 2364.875 423.094 2355.125 415.641 2347.859 410.938 2336.797 404.922 2328.781 401.266 2320.438 397.984 2307.625 393.875 2298.422 391.516 2284.328 388.703 2269.438 386.672 2253.828 385.406 2237.5 384.922 2223.828 385.109 2210.516 385.922 2196.938 387.313 2183.031 389.328 2164.188 392.906 2144.891 397.594 2125.516 403.469 2110.828 408.656 2091.438 416.5 2080.453 421.406 2073.375 425.469 2065.25 432.125 2058.688 440.438 2054.234 449.891 2051.359 461.375 2050.984 472.984 2053.188 484.391 2057.813 495.094 2064.75 504.234 2073.766 511.359 2082.781 515.516 2088.953 516.844 2096.656 517.141 2102.547 516.453 2110.453 514.469 2118.297 511.375 2137.188 502.391 2151.844 496.469 2166.141 491.719 2180.094 488.078 2197.516 484.766 2210.828 483.063 2227.25 482.047 2241.328 482.234 2253.25 483.375 2265.469 485.875 2274.281 488.906 2278.469 490.891 2282.094 493.031 2287.813 497.531 2292.281 502.531 2296.422 509.094 2298.453 513.422 2300.266 518.281 2302.859 527.969 2304.922 541.781 2305.672 554.844 2305.688 566.406 2274.203 566.469 2252.188 566.938 2231.297 567.797 2202.25 569.828 2175.797 572.703 2159.422 575.156 2138.953 579.141 2121.859 583.594 2106.125 588.844 2091.797 594.984 2078.813 602.047 2067.266 610.109 2057.188 619.203 2048.688 629.297 2041.734 640.328 2038.094 647.672 2035.031 655.188 2032.469 663.125 2029.844 674.125 2027.578 691.172 2027.125 700.578 2027.188 711.781 2029.016 728.766 2030.547 736.375 2033.109 745.734 2035.578 752.828 2039.406 761.781 2043.938 770.438 2047.969 777.031 2057.219 789.672 2063.813 797.188 2070.781 804.156 2078.203 810.672 2086.125 816.781 2094.469 822.438 2103.406 827.75 2118.453 835.141 2128.406 839.094 2137.469 842.094 2152.984 845.984 2163.938 847.891 2175.203 849.219 2195.016 850.063 Z M2971.578 1002.531 L2980.906 1000.734 2989.625 997.703 2997.578 993.328 3003.516 988.516 3010 981.188 3014.547 974.438 3019.734 964.734 3237.469 464.078 3240.719 454.234 3242.531 444.156 3242.75 434.078 3241.266 424.453 3239.234 417.797 3236.047 410.75 3231.422 403.75 3226.609 398.625 3221.125 394.406 3215.047 391.125 3208.422 388.719 3200.031 387.063 3191.984 386.609 3182.922 387.016 3175.375 388.125 3166.25 390.672 3157.906 394.625 3151.938 398.859 3146.672 404.031 3142.078 409.953 3137.922 416.656 3133.234 426.281 3026.016 687.016 2921.891 430.141 2918.016 421.5 2913.063 412.734 2908.781 406.656 2904.047 401.359 2898.859 396.844 2892.922 393.047 2884.828 389.578 2878 387.813 2871.031 386.844 2862.969 386.625 2853.828 387.234 2846.063 388.578 2838.719 390.719 2831.828 393.75 2825.5 397.734 2819.922 402.672 2815.234 408.438 2811.406 415.063 2807.422 426.219 2806.078 437.938 2806.313 442.281 2804.484 439.094 2797.969 431.922 2792.078 427.203 2779.656 419.172 2764 410.547 2751.563 404.781 2734.547 398.297 2712.547 392.063 2698.609 389.203 2684.438 387.094 2669.938 385.688 2655.078 384.984 2640.063 384.984 2625.531 385.641 2611.469 386.938 2597.719 388.938 2576.234 393.688 2556.109 400.344 2544.469 405.344 2533.484 410.969 2523 417.328 2513.063 424.375 2503.844 432.016 2495.547 440.125 2490.266 446.063 2483.422 455.109 2477.422 464.719 2472.344 474.859 2468.297 485.328 2466.016 492.844 2463.547 503.938 2462.375 511.875 2461.469 523.641 2461.422 534.328 2461.969 543.453 2463.5 555 2466.016 566.063 2468.594 574.219 2471.719 582 2475.453 589.563 2481.156 598.828 2486.25 605.641 2493.578 613.813 2499.984 619.797 2511.328 628.547 2526.594 637.625 2540.859 644.188 2556.25 649.703 2569.453 653.453 2579.859 655.875 2664.938 672.953 2678.141 676.547 2686.391 679.469 2693.625 682.75 2697.484 684.859 2704.234 689.625 2706.359 691.656 2708.266 693.969 2709.781 696.313 2711.016 698.922 2712.031 701.859 2713.078 707.219 2713.328 711 2713.125 716.422 2712.375 721.281 2711.219 725.328 2709.5 729.328 2707.344 732.969 2704.547 736.547 2701.125 739.984 2696.938 743.359 2693.75 745.469 2688.359 748.328 2684.016 750.188 2677.391 752.406 2669.938 754.25 2661.734 755.672 2653.781 756.578 2644.266 757.156 2631.047 757.219 2620.438 756.703 2609.703 755.688 2591.625 752.828 2573.5 748.563 2558.75 743.891 2539.594 736.234 2511.969 722.719 2504.719 720.297 2497.328 719.047 2490.078 719.063 2484.891 719.906 2479.984 721.375 2473.563 724.313 2465.25 730.172 2460.469 735.156 2456.703 740.5 2453.672 746.328 2451.344 752.859 2449.703 762.922 2449.813 769.828 2450.781 776.406 2452.594 783.047 2454.766 788.188 2459.719 795.922 2463.422 800.125 2469.047 805.156 2478.297 811.297 2491.813 818.984 2505.891 825.75 2520.531 831.609 2535.75 836.563 2553.984 841.125 2572.313 844.625 2592.813 847.547 2613.078 849.375 2635.469 850.063 2657.891 849.375 2681.344 846.938 2699.313 843.672 2720.125 838.031 2732.125 833.703 2740.031 830.375 2754.563 823.031 2769.828 813.266 2783.594 802.078 2794.297 790.922 2803.281 778.859 2809.016 769.094 2812.453 761.969 2817.641 747.953 2821.172 733 2822.703 721.234 2823.25 712.875 2822.969 696.281 2822 687.109 2820.453 678.297 2817.469 667.094 2812.25 654.016 2805.359 641.938 2798.516 632.828 2789.766 623.703 2779.891 615.469 2767.813 607.375 2757.172 601.563 2748.578 597.547 2736.688 592.797 2727.047 589.547 2713.734 585.766 2699.719 582.531 2616.484 565.891 2608.594 563.984 2600.422 561.359 2595.875 559.516 2589.438 556.25 2586.125 554.141 2581.813 550.688 2577.156 545.422 2574.906 541.719 2572.609 535.516 2571.469 528.313 2571.5 522.203 2572.609 514.719 2574.328 509.5 2577.531 503.516 2581.969 498.031 2587.75 492.969 2595.109 488.406 2604.016 484.609 2614.563 481.672 2627.172 479.625 2639.828 478.688 2651.609 478.609 2662.672 479.328 2677.047 481.438 2688.734 484.063 2703.75 488.625 2715.625 493.281 2727.781 499.016 2742.375 507.125 2750.438 510.594 2755.672 512.156 2762.672 513.422 2768.094 513.656 2775.484 512.906 2784.375 510 2793.438 504.734 2800.063 498.828 2806.25 490.469 2810.063 482.484 2812.359 473.969 2812.75 467 2963.094 816.047 2914.141 925.563 2910.641 935.594 2908.563 945.953 2908.313 957.109 2910.469 968.719 2915.25 979.672 2921.453 988.109 2929.375 994.828 2938.641 999.531 2948.844 1002.266 2960.391 1003.172 Z M1479.906 752.766 L1471.531 751.984 1457.844 749.266 1450.594 746.984 1445.875 745.125 1438.969 741.813 1432.516 737.969 1426.297 733.5 1420.484 728.531 1411 718.422 1406.031 711.781 1403.063 707.188 1400.313 702.359 1396.406 694.297 1390.813 679.125 1388.281 669.75 1386.125 659.156 1383.75 640.328 1383.031 628.297 1382.844 615.469 1383.219 602.453 1384.078 590.922 1386.781 572.328 1390.906 555.641 1394 546.641 1397.547 538.344 1401.641 530.469 1404.484 525.828 1407.688 521.219 1412.734 514.922 1418.531 508.828 1424.188 503.75 1428.25 500.594 1434.516 496.406 1441.188 492.766 1448.234 489.656 1452.906 487.984 1460.438 485.859 1474.234 483.516 1482.922 482.922 1491.578 482.922 1505.984 484.281 1513.813 485.844 1521.141 487.938 1528.328 490.641 1532.656 492.656 1539.656 496.516 1543.469 499 1549.766 503.781 1555.266 508.734 1564.688 519.234 1569.438 525.891 1572.141 530.328 1576.406 538.469 1578.656 543.578 1584 559.109 1586.391 568.859 1588.328 579.375 1590.453 598.828 1590.984 611 1590.984 623.969 1590.438 636.344 1589.375 648 1586.391 666.156 1581.984 682.547 1578.75 691.344 1576.297 696.953 1572.266 704.719 1569.313 709.578 1566.172 714.156 1561.125 720.484 1551.422 730.328 1545.5 735.156 1539.328 739.344 1535.016 741.844 1528.109 745.188 1523.656 746.969 1516.328 749.297 1502.984 751.969 1494.672 752.766 1487.375 752.969 Z M2200.625 757.594 L2191.219 756.25 2182.625 754.078 2174.844 751.125 2168.203 747.578 2162.219 743.266 2156.828 738.141 2152.516 732.781 2148.328 725.578 2145.859 719.234 2143.859 710.516 2143.109 700.922 2143.672 691.75 2144.953 685.891 2147.031 680.516 2148.547 677.75 2150.469 675.047 2152.75 672.516 2155.797 669.844 2160.766 666.578 2164.953 664.422 2173.406 661.047 2179.141 659.281 2196.438 655.5 2217.5 652.734 2246.563 650.656 2273.813 649.828 2305.703 649.734 2305.703 659.453 2305.391 667.391 2304.172 678.078 2302.203 687.719 2299.313 697.109 2295.719 705.719 2289.859 716.172 2284.359 723.828 2278.188 730.844 2269.156 739.078 2259.875 745.609 2252.203 749.734 2241.672 753.859 2232.906 756.125 2223.625 757.547 2212.281 758.125 Z"/></defs><use id="Schriftzug-2" fill="none" stroke="#fff" stroke-linecap="round" stroke-opacity="1" stroke-width="30" xlink:href="#stroke-path-3"/></g></svg>